  0
SECTION
  2
HEADER
  9
$ACADVER
  1
AC1014
  9
$HANDSEED
  5
FFFF
  9
$INSUNITS
 70
     4
  9
$MEASUREMENT
 70
     1
  0
ENDSEC
  0
SECTION
  2
TABLES
  0
TABLE
  2
VPORT
  5
8
330
0
100
AcDbSymbolTable
 70
     4
  0
VPORT
  5
2E
330
8
100
AcDbSymbolTableRecord
100
AcDbViewportTableRecord
  2
*ACTIVE
 70
     0
 10
0.0
 20
0.0
 11
1.0
 21
1.0
 12
210.0
 22
148.5
 13
0.0
 23
0.0
 14
10.0
 24
10.0
 15
10.0
 25
10.0
 16
0.0
 26
0.0
 36
1.0
 17
0.0
 27
0.0
 37
0.0
 40
341.0
 41
1.24
 42
50.0
 43
0.0
 44
0.0
 50
0.0
 51
0.0
 71
     0
 72
   100
 73
     1
 74
     3
 75
     0
 76
     0
 77
     0
 78
     0
  0
ENDTAB
  0
TABLE
  2
LTYPE
  5
5
330
0
100
AcDbSymbolTable
 70
     1
  0
LTYPE
  5
14
330
5
100
AcDbSymbolTableRecord
100
AcDbLinetypeTableRecord
  2
BYBLOCK
 70
     0
  3

 72
    65
 73
     0
 40
0.0
  0
LTYPE
  5
15
330
5
100
AcDbSymbolTableRecord
100
AcDbLinetypeTableRecord
  2
BYLAYER
 70
     0
  3

 72
    65
 73
     0
 40
0.0
  0
LTYPE
  5
16
330
5
100
AcDbSymbolTableRecord
100
AcDbLinetypeTableRecord
  2
CONTINUOUS
 70
     0
  3
Solid line
 72
    65
 73
     0
 40
0.0
  0
ENDTAB
  0
TABLE
  2
LAYER
  5
2
100
AcDbSymbolTable
 70
2
  0
LAYER
  5
50
100
AcDbSymbolTableRecord
100
AcDbLayerTableRecord
  2
0
 70
0
  6
CONTINUOUS
  0
LAYER
  5
51
100
AcDbSymbolTableRecord
100
AcDbLayerTableRecord
  2
Layer_1
 70
0
  6
CONTINUOUS
  0
ENDTAB
  0
TABLE
  2
STYLE
  5
3
330
0
100
AcDbSymbolTable
 70
     1
  0
STYLE
  5
11
330
3
100
AcDbSymbolTableRecord
100
AcDbTextStyleTableRecord
  2
STANDARD
 70
     0
 40
0.0
 41
1.0
 50
0.0
 71
     0
 42
2.5
  3
txt
  4

  0
ENDTAB
  0
TABLE
  2
VIEW
  5
6
330
0
100
AcDbSymbolTable
 70
     0
  0
ENDTAB
  0
TABLE
  2
UCS
  5
7
330
0
100
AcDbSymbolTable
 70
     0
  0
ENDTAB
  0
TABLE
  2
APPID
  5
9
330
0
100
AcDbSymbolTable
 70
     2
  0
APPID
  5
12
330
9
100
AcDbSymbolTableRecord
100
AcDbRegAppTableRecord
  2
ACAD
 70
     0
  0
ENDTAB
  0
TABLE
  2
DIMSTYLE
  5
A
330
0
100
AcDbSymbolTable
 70
     1
  0
DIMSTYLE
105
27
330
A
100
AcDbSymbolTableRecord
100
AcDbDimStyleTableRecord
  2
ISO-25
 70
     0
  3

  4

  5

  6

  7

 40
1.0
 41
2.5
 42
0.625
 43
3.75
 44
1.25
 45
0.0
 46
0.0
 47
0.0
 48
0.0
140
2.5
141
2.5
142
0.0
143
0.03937007874016
144
1.0
145
0.0
146
1.0
147
0.625
 71
     0
 72
     0
 73
     0
 74
     0
 75
     0
 76
     0
 77
     1
 78
     8
170
     0
171
     3
172
     1
173
     0
174
     0
175
     0
176
     0
177
     0
178
     0
270
     2
271
     2
272
     2
273
     2
274
     3
340
11
275
     0
280
     0
281
     0
282
     0
283
     0
284
     8
285
     0
286
     0
287
     3
288
     0
  0
ENDTAB
  0
TABLE
  2
BLOCK_RECORD
  5
1
330
0
100
AcDbSymbolTable
 70
     1
  0
BLOCK_RECORD
  5
1F
330
1
100
AcDbSymbolTableRecord
100
AcDbBlockTableRecord
  2
*MODEL_SPACE
  0
BLOCK_RECORD
  5
1B
330
1
100
AcDbSymbolTableRecord
100
AcDbBlockTableRecord
  2
*PAPER_SPACE
  0
ENDTAB
  0
ENDSEC
  0
SECTION
  2
BLOCKS
  0
BLOCK
  5
20
330
1F
100
AcDbEntity
  8
0
100
AcDbBlockBegin
  2
*MODEL_SPACE
 70
     0
 10
0.0
 20
0.0
 30
0.0
  3
*MODEL_SPACE
  1

  0
ENDBLK
  5
21
330
1F
100
AcDbEntity
  8
0
100
AcDbBlockEnd
  0
BLOCK
  5
1C
330
1B
100
AcDbEntity
 67
     1
  8
0
100
AcDbBlockBegin
  2
*PAPER_SPACE
  1

  0
ENDBLK
  5
1D
330
1B
100
AcDbEntity
 67
     1
  8
0
100
AcDbBlockEnd
  0
ENDSEC
  0
SECTION
  2
ENTITIES
  0
SPLINE
  5
100
100
AcDbEntity
  8
Layer_1
 62
7
100
AcDbSpline
 70
8
 71
3
 72
8
 73
4
 74
0
 40
0
 40
0
 40
0
 40
0
 40
1
 40
1
 40
1
 40
1
 10
75.111030
 20
410.294110
 30
0.0
 10
74.802870
 20
409.588150
 30
0.0
 10
72.115790
 20
401.716880
 30
0.0
 10
69.139830
 20
392.802140
 30
0.0
  0
SPLINE
  5
101
100
AcDbEntity
  8
Layer_1
 62
7
100
AcDbSpline
 70
8
 71
3
 72
8
 73
4
 74
0
 40
0
 40
0
 40
0
 40
0
 40
1
 40
1
 40
1
 40
1
 10
69.139830
 20
392.802140
 30
0.0
 10
66.163800
 20
383.887558
 30
0.0
 10
63.437614
 20
376.596594
 30
0.0
 10
63.081274
 20
376.600033
 30
0.0
  0
SPLINE
  5
102
100
AcDbEntity
  8
Layer_1
 62
7
100
AcDbSpline
 70
8
 71
3
 72
8
 73
4
 74
0
 40
0
 40
0
 40
0
 40
0
 40
1
 40
1
 40
1
 40
1
 10
63.081274
 20
376.600033
 30
0.0
 10
62.724933
 20
376.603433
 30
0.0
 10
59.515775
 20
379.129688
 30
0.0
 10
55.949933
 20
382.213645
 30
0.0
  0
SPLINE
  5
103
100
AcDbEntity
  8
Layer_1
 62
7
100
AcDbSpline
 70
8
 71
3
 72
8
 73
4
 74
0
 40
0
 40
0
 40
0
 40
0
 40
1
 40
1
 40
1
 40
1
 10
55.949933
 20
382.213645
 30
0.0
 10
48.039261
 20
389.055241
 30
0.0
 10
48.921065
 20
389.045583
 30
0.0
 10
41.274342
 20
382.372289
 30
0.0
  0
SPLINE
  5
104
100
AcDbEntity
  8
Layer_1
 62
7
100
AcDbSpline
 70
8
 71
3
 72
8
 73
4
 74
0
 40
0
 40
0
 40
0
 40
0
 40
1
 40
1
 40
1
 40
1
 10
41.274342
 20
382.372289
 30
0.0
 10
32.938485
 20
375.097623
 30
0.0
 10
34.098763
 20
374.256989
 30
0.0
 10
28.239485
 20
391.815640
 30
0.0
  0
SPLINE
  5
105
100
AcDbEntity
  8
Layer_1
 62
7
100
AcDbSpline
 70
8
 71
3
 72
8
 73
4
 74
0
 40
0
 40
0
 40
0
 40
0
 40
1
 40
1
 40
1
 40
1
 10
28.239485
 20
391.815640
 30
0.0
 10
25.497317
 20
400.032640
 30
0.0
 10
22.851934
 20
407.833720
 30
0.0
 10
22.360259
 20
409.151540
 30
0.0
  0
LWPOLYLINE
  5
106
100
AcDbEntity
  8
Layer_1
 62
7
100
AcDbPolyline
 90
2
 70
0
 10
75.671210
 20
411.577740
 30
0.0
 10
75.111030
 20
410.294110
 30
0.0
  0
SPLINE
  5
107
100
AcDbEntity
  8
Layer_1
 62
7
100
AcDbSpline
 70
8
 71
3
 72
8
 73
4
 74
0
 40
0
 40
0
 40
0
 40
0
 40
1
 40
1
 40
1
 40
1
 10
0.136931
 20
298.813566
 30
0.0
 10
0.136931
 20
294.566845
 30
0.0
 10
0.680279
 20
292.901108
 30
0.0
 10
5.020372
 20
283.852741
 30
0.0
  0
LWPOLYLINE
  5
108
100
AcDbEntity
  8
Layer_1
 62
7
100
AcDbPolyline
 90
17
 70
0
 10
22.360259
 20
409.151540
 30
0.0
 10
21.466258
 20
411.547760
 30
0.0
 10
13.056424
 20
411.547760
 30
0.0
 10
4.646087
 20
411.547760
 30
0.0
 10
4.646087
 20
398.911340
 30
0.0
 10
4.646087
 20
386.275422
 30
0.0
 10
7.465037
 20
378.903760
 30
0.0
 10
10.283988
 20
371.532125
 30
0.0
 10
10.283988
 20
361.237161
 30
0.0
 10
10.283988
 20
350.941641
 30
0.0
 10
8.883045
 20
346.431845
 30
0.0
 10
7.482077
 20
341.921520
 30
0.0
 10
7.473877
 20
331.355252
 30
0.0
 10
7.465677
 20
320.788984
 30
0.0
 10
3.801304
 20
311.801935
 30
0.0
 10
0.136931
 20
302.814886
 30
0.0
 10
0.136931
 20
298.813566
 30
0.0
  0
SPLINE
  5
109
100
AcDbEntity
  8
Layer_1
 62
7
100
AcDbSpline
 70
8
 71
3
 72
8
 73
4
 74
0
 40
0
 40
0
 40
0
 40
0
 40
1
 40
1
 40
1
 40
1
 10
4.008526
 20
169.808540
 30
0.0
 10
1.816082
 20
164.575330
 30
0.0
 10
0.434931
 20
160.427340
 30
0.0
 10
0.266656
 20
158.570470
 30
0.0
  0
LWPOLYLINE
  5
10a
100
AcDbEntity
  8
Layer_1
 62
7
100
AcDbPolyline
 90
5
 70
0
 10
5.020372
 20
283.852741
 30
0.0
 10
7.184055
 20
279.342416
 30
0.0
 10
7.333915
 20
228.722775
 30
0.0
 10
7.483775
 20
178.103130
 30
0.0
 10
4.008526
 20
169.808540
 30
0.0
  0
SPLINE
  5
10b
100
AcDbEntity
  8
Layer_1
 62
7
100
AcDbSpline
 70
8
 71
3
 72
8
 73
4
 74
0
 40
0
 40
0
 40
0
 40
0
 40
1
 40
1
 40
1
 40
1
 10
8.934327
 20
119.512390
 30
0.0
 10
10.016393
 20
86.896460
 30
0.0
 10
9.954322
 20
80.161390
 30
0.0
 10
8.517317
 20
74.226260
 30
0.0
  0
LWPOLYLINE
  5
10c
100
AcDbEntity
  8
Layer_1
 62
7
100
AcDbPolyline
 90
5
 70
0
 10
0.266656
 20
158.570470
 30
0.0
 10
-0.000018
 20
155.627500
 30
0.0
 10
4.116529
 20
148.140610
 30
0.0
 10
8.233075
 20
140.654250
 30
0.0
 10
8.934327
 20
119.512390
 30
0.0
  0
SPLINE
  5
10d
100
AcDbEntity
  8
Layer_1
 62
7
100
AcDbSpline
 70
8
 71
3
 72
8
 73
4
 74
0
 40
0
 40
0
 40
0
 40
0
 40
1
 40
1
 40
1
 40
1
 10
13.080850
 20
44.804810
 30
0.0
 10
13.390968
 20
34.266470
 30
0.0
 10
13.679338
 20
22.726750
 30
0.0
 10
13.721644
 20
19.160890
 30
0.0
  0
SPLINE
  5
10e
100
AcDbEntity
  8
Layer_1
 62
7
100
AcDbSpline
 70
8
 71
3
 72
8
 73
4
 74
0
 40
0
 40
0
 40
0
 40
0
 40
1
 40
1
 40
1
 40
1
 10
13.721644
 20
19.160890
 30
0.0
 10
13.879601
 20
5.852010
 30
0.0
 10
14.497323
 20
3.488730
 30
0.0
 10
18.458824
 20
1.041580
 30
0.0
  0
LWPOLYLINE
  5
10f
100
AcDbEntity
  8
Layer_1
 62
7
100
AcDbPolyline
 90
5
 70
0
 10
8.517317
 20
74.226260
 30
0.0
 10
7.312219
 20
69.249310
 30
0.0
 10
9.914634
 20
66.607610
 30
0.0
 10
12.516547
 20
63.965390
 30
0.0
 10
13.080850
 20
44.804810
 30
0.0
  0
SPLINE
  5
110
100
AcDbEntity
  8
Layer_1
 62
7
100
AcDbSpline
 70
8
 71
3
 72
8
 73
4
 74
0
 40
0
 40
0
 40
0
 40
0
 40
1
 40
1
 40
1
 40
1
 10
18.458824
 20
1.041580
 30
0.0
 10
21.268937
 20
-0.693900
 30
0.0
 10
25.590429
 20
0.039710
 30
0.0
 10
27.910455
 20
2.646650
 30
0.0
  0
SPLINE
  5
111
100
AcDbEntity
  8
Layer_1
 62
7
100
AcDbSpline
 70
8
 71
3
 72
8
 73
4
 74
0
 40
0
 40
0
 40
0
 40
0
 40
1
 40
1
 40
1
 40
1
 10
27.910455
 20
2.646650
 30
0.0
 10
28.457825
 20
3.261800
 30
0.0
 10
31.015049
 20
10.336970
 30
0.0
 10
33.593308
 20
18.369210
 30
0.0
  0
SPLINE
  5
112
100
AcDbEntity
  8
Layer_1
 62
7
100
AcDbSpline
 70
8
 71
3
 72
8
 73
4
 74
0
 40
0
 40
0
 40
0
 40
0
 40
1
 40
1
 40
1
 40
1
 10
33.593308
 20
18.369210
 30
0.0
 10
36.171461
 20
26.401440
 30
0.0
 10
38.680398
 20
33.734630
 30
0.0
 10
39.168687
 20
34.664850
 30
0.0
  0
SPLINE
  5
113
100
AcDbEntity
  8
Layer_1
 62
7
100
AcDbSpline
 70
8
 71
3
 72
8
 73
4
 74
0
 40
0
 40
0
 40
0
 40
0
 40
1
 40
1
 40
1
 40
1
 10
39.168687
 20
34.664850
 30
0.0
 10
42.558899
 20
41.123230
 30
0.0
 10
50.738281
 20
42.416970
 30
0.0
 10
55.845189
 20
37.302940
 30
0.0
  0
SPLINE
  5
114
100
AcDbEntity
  8
Layer_1
 62
7
100
AcDbSpline
 70
8
 71
3
 72
8
 73
4
 74
0
 40
0
 40
0
 40
0
 40
0
 40
1
 40
1
 40
1
 40
1
 10
55.845189
 20
37.302940
 30
0.0
 10
58.105551
 20
35.039340
 30
0.0
 10
58.421119
 20
34.229660
 30
0.0
 10
64.443618
 20
15.231930
 30
0.0
  0
SPLINE
  5
115
100
AcDbEntity
  8
Layer_1
 62
7
100
AcDbSpline
 70
8
 71
3
 72
8
 73
4
 74
0
 40
0
 40
0
 40
0
 40
0
 40
1
 40
1
 40
1
 40
1
 10
64.443618
 20
15.231930
 30
0.0
 10
68.800430
 20
1.488200
 30
0.0
 10
70.688550
 20
-0.857970
 30
0.0
 10
76.514200
 20
0.234910
 30
0.0
  0
SPLINE
  5
116
100
AcDbEntity
  8
Layer_1
 62
7
100
AcDbSpline
 70
8
 71
3
 72
8
 73
4
 74
0
 40
0
 40
0
 40
0
 40
0
 40
1
 40
1
 40
1
 40
1
 10
76.514200
 20
0.234910
 30
0.0
 10
82.650150
 20
1.386020
 30
0.0
 10
82.838720
 20
2.283320
 30
0.0
 10
83.568540
 20
33.818910
 30
0.0
  0
SPLINE
  5
117
100
AcDbEntity
  8
Layer_1
 62
7
100
AcDbSpline
 70
8
 71
3
 72
8
 73
4
 74
0
 40
0
 40
0
 40
0
 40
0
 40
1
 40
1
 40
1
 40
1
 10
83.568540
 20
33.818910
 30
0.0
 10
84.290170
 20
65.001840
 30
0.0
 10
84.094190
 20
63.275970
 30
0.0
 10
87.277870
 20
66.536290
 30
0.0
  0
LWPOLYLINE
  5
118
100
AcDbEntity
  8
Layer_1
 62
7
100
AcDbPolyline
 90
1
 70
1
 10
18.458824
 20
1.041580
 30
0.0
  0
SPLINE
  5
119
100
AcDbEntity
  8
Layer_1
 62
7
100
AcDbSpline
 70
8
 71
3
 72
8
 73
4
 74
0
 40
0
 40
0
 40
0
 40
0
 40
1
 40
1
 40
1
 40
1
 10
87.494400
 20
101.177070
 30
0.0
 10
87.805710
 20
112.656870
 30
0.0
 10
88.225580
 20
126.223460
 30
0.0
 10
88.427670
 20
131.324590
 30
0.0
  0
LWPOLYLINE
  5
11a
100
AcDbEntity
  8
Layer_1
 62
7
100
AcDbPolyline
 90
5
 70
0
 10
87.277870
 20
66.536290
 30
0.0
 10
89.773340
 20
69.091180
 30
0.0
 10
88.350670
 20
74.698070
 30
0.0
 10
86.928540
 20
80.304960
 30
0.0
 10
87.494400
 20
101.177070
 30
0.0
  0
SPLINE
  5
11b
100
AcDbEntity
  8
Layer_1
 62
7
100
AcDbSpline
 70
8
 71
3
 72
8
 73
4
 74
0
 40
0
 40
0
 40
0
 40
0
 40
1
 40
1
 40
1
 40
1
 10
92.170090
 20
146.828550
 30
0.0
 10
94.026360
 20
150.254480
 30
0.0
 10
95.769430
 20
153.298410
 30
0.0
 10
96.043220
 20
153.592990
 30
0.0
  0
SPLINE
  5
11c
100
AcDbEntity
  8
Layer_1
 62
7
100
AcDbSpline
 70
8
 71
3
 72
8
 73
4
 74
0
 40
0
 40
0
 40
0
 40
0
 40
1
 40
1
 40
1
 40
1
 10
96.043220
 20
153.592990
 30
0.0
 10
97.630700
 20
155.300560
 30
0.0
 10
96.557680
 20
161.149780
 30
0.0
 10
93.158660
 20
169.315550
 30
0.0
  0
LWPOLYLINE
  5
11d
100
AcDbEntity
  8
Layer_1
 62
7
100
AcDbPolyline
 90
3
 70
0
 10
88.427670
 20
131.324590
 30
0.0
 10
88.795100
 20
140.599470
 30
0.0
 10
92.170090
 20
146.828550
 30
0.0
  0
SPLINE
  5
11e
100
AcDbEntity
  8
Layer_1
 62
7
100
AcDbSpline
 70
8
 71
3
 72
8
 73
4
 74
0
 40
0
 40
0
 40
0
 40
0
 40
1
 40
1
 40
1
 40
1
 10
14.080123
 20
398.581110
 30
0.0
 10
17.087139
 20
398.581110
 30
0.0
 10
18.525996
 20
395.546740
 30
0.0
 10
16.486191
 20
393.507010
 30
0.0
  0
SPLINE
  5
11f
100
AcDbEntity
  8
Layer_1
 62
7
100
AcDbSpline
 70
8
 71
3
 72
8
 73
4
 74
0
 40
0
 40
0
 40
0
 40
0
 40
1
 40
1
 40
1
 40
1
 10
16.486191
 20
393.507010
 30
0.0
 10
15.866008
 20
392.886880
 30
0.0
 10
14.724040
 20
392.379440
 30
0.0
 10
13.948864
 20
392.379440
 30
0.0
  0
SPLINE
  5
120
100
AcDbEntity
  8
Layer_1
 62
7
100
AcDbSpline
 70
8
 71
3
 72
8
 73
4
 74
0
 40
0
 40
0
 40
0
 40
0
 40
1
 40
1
 40
1
 40
1
 10
13.948864
 20
392.379440
 30
0.0
 10
12.532496
 20
392.379440
 30
0.0
 10
10.284490
 20
394.124760
 30
0.0
 10
10.284490
 20
395.224210
 30
0.0
  0
SPLINE
  5
121
100
AcDbEntity
  8
Layer_1
 62
7
100
AcDbSpline
 70
8
 71
3
 72
8
 73
4
 74
0
 40
0
 40
0
 40
0
 40
0
 40
1
 40
1
 40
1
 40
1
 10
10.284490
 20
395.224210
 30
0.0
 10
10.284490
 20
396.199020
 30
0.0
 10
12.977975
 20
398.581110
 30
0.0
 10
14.080123
 20
398.581110
 30
0.0
  0
LWPOLYLINE
  5
122
100
AcDbEntity
  8
Layer_1
 62
7
100
AcDbPolyline
 90
22
 70
0
 10
93.158660
 20
169.315550
 30
0.0
 10
89.775910
 20
177.441670
 30
0.0
 10
89.775910
 20
228.050982
 30
0.0
 10
89.775910
 20
278.660294
 30
0.0
 10
93.158660
 20
286.198855
 30
0.0
 10
96.540880
 20
293.737905
 30
0.0
 10
96.540880
 20
298.725724
 30
0.0
 10
96.540880
 20
303.714046
 30
0.0
 10
93.158660
 20
311.949202
 30
0.0
 10
89.775910
 20
320.184861
 30
0.0
 10
89.775910
 20
330.813676
 30
0.0
 10
89.775910
 20
341.441962
 30
0.0
 10
88.366180
 20
345.585919
 30
0.0
 10
86.956960
 20
349.729850
 30
0.0
 10
86.956960
 20
360.844413
 30
0.0
 10
86.956960
 20
371.958448
 30
0.0
 10
89.634830
 20
378.927546
 30
0.0
 10
92.312700
 20
385.896116
 30
0.0
 10
92.312700
 20
398.580610
 30
0.0
 10
92.312700
 20
411.265610
 30
0.0
 10
83.991770
 20
411.421690
 30
0.0
 10
75.671210
 20
411.577740
 30
0.0
  0
SPLINE
  5
123
100
AcDbEntity
  8
Layer_1
 62
7
100
AcDbSpline
 70
8
 71
3
 72
8
 73
4
 74
0
 40
0
 40
0
 40
0
 40
0
 40
1
 40
1
 40
1
 40
1
 10
83.167380
 20
398.291210
 30
0.0
 10
85.732250
 20
398.178210
 30
0.0
 10
87.721870
 20
395.447390
 30
0.0
 10
85.363130
 20
393.312700
 30
0.0
  0
SPLINE
  5
124
100
AcDbEntity
  8
Layer_1
 62
7
100
AcDbSpline
 70
8
 71
3
 72
8
 73
4
 74
0
 40
0
 40
0
 40
0
 40
0
 40
1
 40
1
 40
1
 40
1
 10
85.363130
 20
393.312700
 30
0.0
 10
83.899030
 20
391.987640
 30
0.0
 10
82.055390
 20
392.156550
 30
0.0
 10
80.448680
 20
393.763320
 30
0.0
  0
SPLINE
  5
125
100
AcDbEntity
  8
Layer_1
 62
7
100
AcDbSpline
 70
8
 71
3
 72
8
 73
4
 74
0
 40
0
 40
0
 40
0
 40
0
 40
1
 40
1
 40
1
 40
1
 10
80.448680
 20
393.763320
 30
0.0
 10
78.702540
 20
395.509410
 30
0.0
 10
78.715500
 20
395.969310
 30
0.0
 10
80.550490
 20
397.412710
 30
0.0
  0
SPLINE
  5
126
100
AcDbEntity
  8
Layer_1
 62
7
100
AcDbSpline
 70
8
 71
3
 72
8
 73
4
 74
0
 40
0
 40
0
 40
0
 40
0
 40
1
 40
1
 40
1
 40
1
 10
80.550490
 20
397.412710
 30
0.0
 10
81.393560
 20
398.075870
 30
0.0
 10
82.312430
 20
398.328890
 30
0.0
 10
83.167380
 20
398.291210
 30
0.0
  0
LWPOLYLINE
  5
127
100
AcDbEntity
  8
Layer_1
 62
7
100
AcDbPolyline
 90
1
 70
1
 10
14.080123
 20
398.581110
 30
0.0
  0
SPLINE
  5
128
100
AcDbEntity
  8
Layer_1
 62
7
100
AcDbSpline
 70
8
 71
3
 72
8
 73
4
 74
0
 40
0
 40
0
 40
0
 40
0
 40
1
 40
1
 40
1
 40
1
 10
33.650003
 20
366.182779
 30
0.0
 10
34.612742
 20
366.161879
 30
0.0
 10
35.815856
 20
365.182866
 30
0.0
 10
38.376334
 20
363.221721
 30
0.0
  0
SPLINE
  5
129
100
AcDbEntity
  8
Layer_1
 62
7
100
AcDbSpline
 70
8
 71
3
 72
8
 73
4
 74
0
 40
0
 40
0
 40
0
 40
0
 40
1
 40
1
 40
1
 40
1
 10
38.376334
 20
363.221721
 30
0.0
 10
44.532580
 20
358.506396
 30
0.0
 10
44.110860
 20
359.348142
 30
0.0
 10
44.110860
 20
351.781059
 30
0.0
  0
SPLINE
  5
12a
100
AcDbEntity
  8
Layer_1
 62
7
100
AcDbSpline
 70
8
 71
3
 72
8
 73
4
 74
0
 40
0
 40
0
 40
0
 40
0
 40
1
 40
1
 40
1
 40
1
 10
44.110860
 20
351.781059
 30
0.0
 10
44.110860
 20
344.413762
 30
0.0
 10
43.949306
 20
344.025618
 30
0.0
 10
41.538925
 20
345.614521
 30
0.0
  0
SPLINE
  5
12b
100
AcDbEntity
  8
Layer_1
 62
7
100
AcDbSpline
 70
8
 71
3
 72
8
 73
4
 74
0
 40
0
 40
0
 40
0
 40
0
 40
1
 40
1
 40
1
 40
1
 10
41.538925
 20
345.614521
 30
0.0
 10
38.862982
 20
347.378551
 30
0.0
 10
38.418562
 20
347.050520
 30
0.0
 10
33.484109
 20
339.664994
 30
0.0
  0
SPLINE
  5
12c
100
AcDbEntity
  8
Layer_1
 62
7
100
AcDbSpline
 70
8
 71
3
 72
8
 73
4
 74
0
 40
0
 40
0
 40
0
 40
0
 40
1
 40
1
 40
1
 40
1
 10
33.484109
 20
339.664994
 30
0.0
 10
27.451503
 20
330.635823
 30
0.0
 10
27.761463
 20
330.266624
 30
0.0
 10
27.761463
 20
346.483201
 30
0.0
  0
LWPOLYLINE
  5
12d
100
AcDbEntity
  8
Layer_1
 62
7
100
AcDbPolyline
 90
1
 70
1
 10
83.167380
 20
398.291210
 30
0.0
  0
SPLINE
  5
12e
100
AcDbEntity
  8
Layer_1
 62
7
100
AcDbSpline
 70
8
 71
3
 72
8
 73
4
 74
0
 40
0
 40
0
 40
0
 40
0
 40
1
 40
1
 40
1
 40
1
 10
30.367000
 20
363.396373
 30
0.0
 10
31.965083
 20
365.266977
 30
0.0
 10
32.687264
 20
366.203734
 30
0.0
 10
33.650003
 20
366.182779
 30
0.0
  0
LWPOLYLINE
  5
12f
100
AcDbEntity
  8
Layer_1
 62
7
100
AcDbPolyline
 90
3
 70
0
 10
27.761463
 20
346.483201
 30
0.0
 10
27.761463
 20
360.346441
 30
0.0
 10
30.367000
 20
363.396373
 30
0.0
  0
SPLINE
  5
130
100
AcDbEntity
  8
Layer_1
 62
7
100
AcDbSpline
 70
8
 71
3
 72
8
 73
4
 74
0
 40
0
 40
0
 40
0
 40
0
 40
1
 40
1
 40
1
 40
1
 10
63.360330
 20
364.854174
 30
0.0
 10
64.606517
 20
364.742467
 30
0.0
 10
65.722260
 20
364.285822
 30
0.0
 10
66.540490
 20
363.420661
 30
0.0
  0
LWPOLYLINE
  5
131
100
AcDbEntity
  8
Layer_1
 62
7
100
AcDbPolyline
 90
1
 70
1
 10
33.650003
 20
366.182779
 30
0.0
  0
SPLINE
  5
132
100
AcDbEntity
  8
Layer_1
 62
7
100
AcDbSpline
 70
8
 71
3
 72
8
 73
4
 74
0
 40
0
 40
0
 40
0
 40
0
 40
1
 40
1
 40
1
 40
1
 10
69.411600
 20
347.493988
 30
0.0
 10
69.416600
 20
340.398207
 30
0.0
 10
69.290530
 20
334.148564
 30
0.0
 10
69.130990
 20
333.605956
 30
0.0
  0
SPLINE
  5
133
100
AcDbEntity
  8
Layer_1
 62
7
100
AcDbSpline
 70
8
 71
3
 72
8
 73
4
 74
0
 40
0
 40
0
 40
0
 40
0
 40
1
 40
1
 40
1
 40
1
 10
69.130990
 20
333.605956
 30
0.0
 10
68.646380
 20
331.957893
 30
0.0
 10
68.235740
 20
332.391254
 30
0.0
 10
63.581988
 20
339.459333
 30
0.0
  0
SPLINE
  5
134
100
AcDbEntity
  8
Layer_1
 62
7
100
AcDbSpline
 70
8
 71
3
 72
8
 73
4
 74
0
 40
0
 40
0
 40
0
 40
0
 40
1
 40
1
 40
1
 40
1
 10
63.581988
 20
339.459333
 30
0.0
 10
58.508338
 20
347.165005
 30
0.0
 10
58.382634
 20
347.263854
 30
0.0
 10
55.756618
 20
345.640873
 30
0.0
  0
SPLINE
  5
135
100
AcDbEntity
  8
Layer_1
 62
7
100
AcDbSpline
 70
8
 71
3
 72
8
 73
4
 74
0
 40
0
 40
0
 40
0
 40
0
 40
1
 40
1
 40
1
 40
1
 10
55.756618
 20
345.640873
 30
0.0
 10
54.704370
 20
344.990633
 30
0.0
 10
53.719168
 20
344.458503
 30
0.0
 10
53.567085
 20
344.458503
 30
0.0
  0
SPLINE
  5
136
100
AcDbEntity
  8
Layer_1
 62
7
100
AcDbSpline
 70
8
 71
3
 72
8
 73
4
 74
0
 40
0
 40
0
 40
0
 40
0
 40
1
 40
1
 40
1
 40
1
 10
53.567085
 20
344.458503
 30
0.0
 10
53.072314
 20
344.458503
 30
0.0
 10
52.677847
 20
357.079446
 30
0.0
 10
53.135073
 20
358.281950
 30
0.0
  0
SPLINE
  5
137
100
AcDbEntity
  8
Layer_1
 62
7
100
AcDbSpline
 70
8
 71
3
 72
8
 73
4
 74
0
 40
0
 40
0
 40
0
 40
0
 40
1
 40
1
 40
1
 40
1
 10
53.135073
 20
358.281950
 30
0.0
 10
54.709027
 20
362.421753
 30
0.0
 10
59.621704
 20
365.189242
 30
0.0
 10
63.360293
 20
364.854174
 30
0.0
  0
LWPOLYLINE
  5
138
100
AcDbEntity
  8
Layer_1
 62
7
100
AcDbPolyline
 90
3
 70
0
 10
66.540490
 20
363.420661
 30
0.0
 10
69.401300
 20
360.395521
 30
0.0
 10
69.411600
 20
347.493988
 30
0.0
  0
SPLINE
  5
139
100
AcDbEntity
  8
Layer_1
 62
7
100
AcDbSpline
 70
8
 71
3
 72
8
 73
4
 74
0
 40
0
 40
0
 40
0
 40
0
 40
1
 40
1
 40
1
 40
1
 10
85.715560
 20
341.076282
 30
0.0
 10
85.933550
 20
341.076282
 30
0.0
 10
86.111900
 20
338.399492
 30
0.0
 10
86.111900
 20
335.127813
 30
0.0
  0
LWPOLYLINE
  5
13a
100
AcDbEntity
  8
Layer_1
 62
7
100
AcDbPolyline
 90
1
 70
1
 10
63.360293
 20
364.854174
 30
0.0
  0
SPLINE
  5
13b
100
AcDbEntity
  8
Layer_1
 62
7
100
AcDbSpline
 70
8
 71
3
 72
8
 73
4
 74
0
 40
0
 40
0
 40
0
 40
0
 40
1
 40
1
 40
1
 40
1
 10
84.984330
 20
329.544682
 30
0.0
 10
84.364170
 20
329.745659
 30
0.0
 10
83.476490
 20
329.910045
 30
0.0
 10
83.011330
 20
329.910045
 30
0.0
  0
SPLINE
  5
13c
100
AcDbEntity
  8
Layer_1
 62
7
100
AcDbSpline
 70
8
 71
3
 72
8
 73
4
 74
0
 40
0
 40
0
 40
0
 40
0
 40
1
 40
1
 40
1
 40
1
 10
83.011330
 20
329.910045
 30
0.0
 10
82.546250
 20
329.910045
 30
0.0
 10
81.658490
 20
329.745659
 30
0.0
 10
81.038330
 20
329.544682
 30
0.0
  0
LWPOLYLINE
  5
13d
100
AcDbEntity
  8
Layer_1
 62
7
100
AcDbPolyline
 90
3
 70
0
 10
86.111900
 20
335.127813
 30
0.0
 10
86.111900
 20
329.179345
 30
0.0
 10
84.984330
 20
329.544682
 30
0.0
  0
SPLINE
  5
13e
100
AcDbEntity
  8
Layer_1
 62
7
100
AcDbSpline
 70
8
 71
3
 72
8
 73
4
 74
0
 40
0
 40
0
 40
0
 40
0
 40
1
 40
1
 40
1
 40
1
 10
79.910730
 20
335.127813
 30
0.0
 10
79.910730
 20
341.000690
 30
0.0
 10
80.236250
 20
341.934167
 30
0.0
 10
81.755590
 20
340.414823
 30
0.0
  0
SPLINE
  5
13f
100
AcDbEntity
  8
Layer_1
 62
7
100
AcDbSpline
 70
8
 71
3
 72
8
 73
4
 74
0
 40
0
 40
0
 40
0
 40
0
 40
1
 40
1
 40
1
 40
1
 10
81.755590
 20
340.414823
 30
0.0
 10
82.261420
 20
339.909046
 30
0.0
 10
82.758020
 20
339.909046
 30
0.0
 10
83.868130
 20
340.414823
 30
0.0
  0
SPLINE
  5
140
100
AcDbEntity
  8
Layer_1
 62
7
100
AcDbSpline
 70
8
 71
3
 72
8
 73
4
 74
0
 40
0
 40
0
 40
0
 40
0
 40
1
 40
1
 40
1
 40
1
 10
83.868130
 20
340.414823
 30
0.0
 10
84.666330
 20
340.778546
 30
0.0
 10
85.497620
 20
341.076282
 30
0.0
 10
85.715560
 20
341.076282
 30
0.0
  0
LWPOLYLINE
  5
141
100
AcDbEntity
  8
Layer_1
 62
7
100
AcDbPolyline
 90
3
 70
0
 10
81.038330
 20
329.544682
 30
0.0
 10
79.910730
 20
329.179345
 30
0.0
 10
79.910730
 20
335.127813
 30
0.0
  0
SPLINE
  5
142
100
AcDbEntity
  8
Layer_1
 62
7
100
AcDbSpline
 70
8
 71
3
 72
8
 73
4
 74
0
 40
0
 40
0
 40
0
 40
0
 40
1
 40
1
 40
1
 40
1
 10
11.867863
 20
340.982252
 30
0.0
 10
12.173456
 20
340.926052
 30
0.0
 10
12.505667
 20
340.773813
 30
0.0
 10
12.828009
 20
340.506293
 30
0.0
  0
SPLINE
  5
143
100
AcDbEntity
  8
Layer_1
 62
7
100
AcDbSpline
 70
8
 71
3
 72
8
 73
4
 74
0
 40
0
 40
0
 40
0
 40
0
 40
1
 40
1
 40
1
 40
1
 10
12.828009
 20
340.506293
 30
0.0
 10
13.492828
 20
339.954636
 30
0.0
 10
14.019481
 20
339.957732
 30
0.0
 10
15.376185
 20
340.519783
 30
0.0
  0
SPLINE
  5
144
100
AcDbEntity
  8
Layer_1
 62
7
100
AcDbSpline
 70
8
 71
3
 72
8
 73
4
 74
0
 40
0
 40
0
 40
0
 40
0
 40
1
 40
1
 40
1
 40
1
 10
15.376185
 20
340.519783
 30
0.0
 10
17.431177
 20
341.370975
 30
0.0
 10
17.930578
 20
341.030615
 30
0.0
 10
17.047902
 20
339.381361
 30
0.0
  0
SPLINE
  5
145
100
AcDbEntity
  8
Layer_1
 62
7
100
AcDbSpline
 70
8
 71
3
 72
8
 73
4
 74
0
 40
0
 40
0
 40
0
 40
0
 40
1
 40
1
 40
1
 40
1
 10
17.047902
 20
339.381361
 30
0.0
 10
16.373267
 20
338.120912
 30
0.0
 10
16.534398
 20
332.834670
 30
0.0
 10
17.318174
 20
330.505410
 30
0.0
  0
SPLINE
  5
146
100
AcDbEntity
  8
Layer_1
 62
7
100
AcDbSpline
 70
8
 71
3
 72
8
 73
4
 74
0
 40
0
 40
0
 40
0
 40
0
 40
1
 40
1
 40
1
 40
1
 10
17.318174
 20
330.505410
 30
0.0
 10
17.799160
 20
329.076025
 30
0.0
 10
16.160463
 20
328.660656
 30
0.0
 10
14.922980
 20
329.898218
 30
0.0
  0
SPLINE
  5
147
100
AcDbEntity
  8
Layer_1
 62
7
100
AcDbSpline
 70
8
 71
3
 72
8
 73
4
 74
0
 40
0
 40
0
 40
0
 40
0
 40
1
 40
1
 40
1
 40
1
 10
14.922980
 20
329.898218
 30
0.0
 10
14.417123
 20
330.404022
 30
0.0
 10
13.920633
 20
330.404022
 30
0.0
 10
12.810441
 20
329.898218
 30
0.0
  0
LWPOLYLINE
  5
148
100
AcDbEntity
  8
Layer_1
 62
7
100
AcDbPolyline
 90
1
 70
1
 10
85.715560
 20
341.076282
 30
0.0
  0
SPLINE
  5
149
100
AcDbEntity
  8
Layer_1
 62
7
100
AcDbSpline
 70
8
 71
3
 72
8
 73
4
 74
0
 40
0
 40
0
 40
0
 40
0
 40
1
 40
1
 40
1
 40
1
 10
12.810441
 20
329.898218
 30
0.0
 10
10.636413
 20
328.907697
 30
0.0
 10
9.028090
 20
329.521266
 30
0.0
 10
10.848820
 20
330.646513
 30
0.0
  0
SPLINE
  5
14a
100
AcDbEntity
  8
Layer_1
 62
7
100
AcDbSpline
 70
8
 71
3
 72
8
 73
4
 74
0
 40
0
 40
0
 40
0
 40
0
 40
1
 40
1
 40
1
 40
1
 10
10.848820
 20
330.646513
 30
0.0
 10
11.594072
 20
331.107337
 30
0.0
 10
11.574704
 20
338.027647
 30
0.0
 10
10.823950
 20
339.430467
 30
0.0
  0
SPLINE
  5
14b
100
AcDbEntity
  8
Layer_1
 62
7
100
AcDbSpline
 70
8
 71
3
 72
8
 73
4
 74
0
 40
0
 40
0
 40
0
 40
0
 40
1
 40
1
 40
1
 40
1
 10
10.823950
 20
339.430467
 30
0.0
 10
10.274358
 20
340.457315
 30
0.0
 10
10.951056
 20
341.151397
 30
0.0
 10
11.867811
 20
340.982831
 30
0.0
  0
LWPOLYLINE
  5
14c
100
AcDbEntity
  8
Layer_1
 62
7
100
AcDbPolyline
 90
1
 70
1
 10
12.810441
 20
329.898218
 30
0.0
  0
SPLINE
  5
14d
100
AcDbEntity
  8
Layer_1
 62
7
100
AcDbSpline
 70
8
 71
3
 72
8
 73
4
 74
0
 40
0
 40
0
 40
0
 40
0
 40
1
 40
1
 40
1
 40
1
 10
48.499213
 20
326.468401
 30
0.0
 10
49.802656
 20
326.476301
 30
0.0
 10
51.104036
 20
324.974114
 30
0.0
 10
53.862211
 20
321.970987
 30
0.0
  0
LWPOLYLINE
  5
14e
100
AcDbEntity
  8
Layer_1
 62
7
100
AcDbPolyline
 90
2
 70
0
 10
11.867811
 20
340.982831
 30
0.0
 10
11.867863
 20
340.982252
 30
0.0
  0
SPLINE
  5
14f
100
AcDbEntity
  8
Layer_1
 62
7
100
AcDbSpline
 70
8
 71
3
 72
8
 73
4
 74
0
 40
0
 40
0
 40
0
 40
0
 40
1
 40
1
 40
1
 40
1
 10
53.542330
 20
296.666078
 30
0.0
 10
47.839739
 20
290.993012
 30
0.0
 10
48.515723
 20
290.965416
 30
0.0
 10
43.018422
 20
297.096526
 30
0.0
  0
LWPOLYLINE
  5
150
100
AcDbEntity
  8
Layer_1
 62
7
100
AcDbPolyline
 90
6
 70
0
 10
53.862211
 20
321.970987
 30
0.0
 10
58.205082
 20
317.242618
 30
0.0
 10
58.205082
 20
309.273580
 30
0.0
 10
58.205082
 20
301.305071
 30
0.0
 10
53.542330
 20
296.666078
 30
0.0
 10
53.542330
 20
296.666078
 30
0.0
  0
SPLINE
  5
151
100
AcDbEntity
  8
Layer_1
 62
7
100
AcDbSpline
 70
8
 71
3
 72
8
 73
4
 74
0
 40
0
 40
0
 40
0
 40
0
 40
1
 40
1
 40
1
 40
1
 10
43.124362
 20
321.904838
 30
0.0
 10
45.890342
 20
324.941778
 30
0.0
 10
47.195770
 20
326.459878
 30
0.0
 10
48.499213
 20
326.467869
 30
0.0
  0
LWPOLYLINE
  5
152
100
AcDbEntity
  8
Layer_1
 62
7
100
AcDbPolyline
 90
5
 70
0
 10
43.018422
 20
297.096526
 30
0.0
 10
38.473489
 20
302.165466
 30
0.0
 10
38.473489
 20
309.481831
 30
0.0
 10
38.473489
 20
316.798168
 30
0.0
 10
43.124362
 20
321.904838
 30
0.0
  0
LWPOLYLINE
  5
153
100
AcDbEntity
  8
Layer_1
 62
7
100
AcDbPolyline
 90
2
 70
0
 10
48.499213
 20
326.467869
 30
0.0
 10
48.499213
 20
326.468401
 30
0.0
  0
SPLINE
  5
154
100
AcDbEntity
  8
Layer_1
 62
7
100
AcDbSpline
 70
8
 71
3
 72
8
 73
4
 74
0
 40
0
 40
0
 40
0
 40
0
 40
1
 40
1
 40
1
 40
1
 10
9.579640
 20
301.594472
 30
0.0
 10
11.507553
 20
300.521031
 30
0.0
 10
11.973035
 20
297.770529
 30
0.0
 10
10.452977
 20
296.434568
 30
0.0
  0
SPLINE
  5
155
100
AcDbEntity
  8
Layer_1
 62
7
100
AcDbSpline
 70
8
 71
3
 72
8
 73
4
 74
0
 40
0
 40
0
 40
0
 40
0
 40
1
 40
1
 40
1
 40
1
 10
10.452977
 20
296.434568
 30
0.0
 10
8.572028
 20
294.781584
 30
0.0
 10
7.126080
 20
294.707606
 30
0.0
 10
5.418141
 20
296.176705
 30
0.0
  0
SPLINE
  5
156
100
AcDbEntity
  8
Layer_1
 62
7
100
AcDbSpline
 70
8
 71
3
 72
8
 73
4
 74
0
 40
0
 40
0
 40
0
 40
0
 40
1
 40
1
 40
1
 40
1
 10
5.418141
 20
296.176705
 30
0.0
 10
3.484249
 20
297.840193
 30
0.0
 10
3.943883
 20
300.172284
 30
0.0
 10
6.486291
 20
301.594472
 30
0.0
  0
LWPOLYLINE
  5
157
100
AcDbEntity
  8
Layer_1
 62
7
100
AcDbPolyline
 90
2
 70
0
 10
8.029341
 20
302.457464
 30
0.0
 10
9.579640
 20
301.594472
 30
0.0
  0
SPLINE
  5
158
100
AcDbEntity
  8
Layer_1
 62
7
100
AcDbSpline
 70
8
 71
3
 72
8
 73
4
 74
0
 40
0
 40
0
 40
0
 40
0
 40
1
 40
1
 40
1
 40
1
 10
89.182520
 20
302.175312
 30
0.0
 10
91.693310
 20
302.175312
 30
0.0
 10
93.651050
 20
297.819053
 30
0.0
 10
91.918790
 20
296.086800
 30
0.0
  0
SPLINE
  5
159
100
AcDbEntity
  8
Layer_1
 62
7
100
AcDbSpline
 70
8
 71
3
 72
8
 73
4
 74
0
 40
0
 40
0
 40
0
 40
0
 40
1
 40
1
 40
1
 40
1
 10
91.918790
 20
296.086800
 30
0.0
 10
90.066550
 20
294.234558
 30
0.0
 10
85.266480
 20
296.415968
 30
0.0
 10
85.266480
 20
299.109876
 30
0.0
  0
SPLINE
  5
15a
100
AcDbEntity
  8
Layer_1
 62
7
100
AcDbSpline
 70
8
 71
3
 72
8
 73
4
 74
0
 40
0
 40
0
 40
0
 40
0
 40
1
 40
1
 40
1
 40
1
 10
85.266480
 20
299.109876
 30
0.0
 10
85.266480
 20
300.060392
 30
0.0
 10
87.968350
 20
302.175312
 30
0.0
 10
89.182520
 20
302.175312
 30
0.0
  0
LWPOLYLINE
  5
15b
100
AcDbEntity
  8
Layer_1
 62
7
100
AcDbPolyline
 90
2
 70
0
 10
6.486291
 20
301.594472
 30
0.0
 10
8.029341
 20
302.457464
 30
0.0
  0
LWPOLYLINE
  5
15c
100
AcDbEntity
  8
Layer_1
 62
7
100
AcDbPolyline
 90
1
 70
1
 10
89.182520
 20
302.175312
 30
0.0
  0
SPLINE
  5
15d
100
AcDbEntity
  8
Layer_1
 62
7
100
AcDbSpline
 70
8
 71
3
 72
8
 73
4
 74
0
 40
0
 40
0
 40
0
 40
0
 40
1
 40
1
 40
1
 40
1
 10
75.732190
 20
272.937832
 30
0.0
 10
77.234150
 20
271.082976
 30
0.0
 10
77.084800
 20
269.211234
 30
0.0
 10
75.324470
 20
267.826511
 30
0.0
  0
LWPOLYLINE
  5
15e
100
AcDbEntity
  8
Layer_1
 62
7
100
AcDbPolyline
 90
4
 70
0
 10
22.718875
 20
274.268501
 30
0.0
 10
48.686803
 20
274.268501
 30
0.0
 10
74.654200
 20
274.268501
 30
0.0
 10
75.732190
 20
272.937832
 30
0.0
  0
SPLINE
  5
15f
100
AcDbEntity
  8
Layer_1
 62
7
100
AcDbSpline
 70
8
 71
3
 72
8
 73
4
 74
0
 40
0
 40
0
 40
0
 40
0
 40
1
 40
1
 40
1
 40
1
 10
21.552036
 20
267.678715
 30
0.0
 10
19.936146
 20
268.987238
 30
0.0
 10
19.914265
 20
271.464400
 30
0.0
 10
21.504996
 20
273.055122
 30
0.0
  0
LWPOLYLINE
  5
160
100
AcDbEntity
  8
Layer_1
 62
7
100
AcDbPolyline
 90
5
 70
0
 10
75.324470
 20
267.826511
 30
0.0
 10
73.838760
 20
266.657608
 30
0.0
 10
48.325594
 20
266.657608
 30
0.0
 10
22.812405
 20
266.657608
 30
0.0
 10
21.552036
 20
267.678715
 30
0.0
  0
SPLINE
  5
161
100
AcDbEntity
  8
Layer_1
 62
7
100
AcDbSpline
 70
8
 71
3
 72
8
 73
4
 74
0
 40
0
 40
0
 40
0
 40
0
 40
1
 40
1
 40
1
 40
1
 10
58.447970
 20
257.104690
 30
0.0
 10
61.834795
 20
257.087490
 30
0.0
 10
70.116250
 20
252.827213
 30
0.0
 10
72.844000
 20
249.359428
 30
0.0
  0
LWPOLYLINE
  5
162
100
AcDbEntity
  8
Layer_1
 62
7
100
AcDbPolyline
 90
2
 70
0
 10
21.504996
 20
273.055122
 30
0.0
 10
22.718875
 20
274.268501
 30
0.0
  0
SPLINE
  5
163
100
AcDbEntity
  8
Layer_1
 62
7
100
AcDbSpline
 70
8
 71
3
 72
8
 73
4
 74
0
 40
0
 40
0
 40
0
 40
0
 40
1
 40
1
 40
1
 40
1
 10
72.863630
 20
172.507790
 30
0.0
 10
71.161410
 20
170.805540
 30
0.0
 10
70.677750
 20
170.999350
 30
0.0
 10
63.682275
 20
176.190250
 30
0.0
  0
SPLINE
  5
164
100
AcDbEntity
  8
Layer_1
 62
7
100
AcDbSpline
 70
8
 71
3
 72
8
 73
4
 74
0
 40
0
 40
0
 40
0
 40
0
 40
1
 40
1
 40
1
 40
1
 10
63.682275
 20
176.190250
 30
0.0
 10
55.113796
 20
182.548280
 30
0.0
 10
55.899450
 20
178.013480
 30
0.0
 10
56.078599
 20
220.056824
 30
0.0
  0
LWPOLYLINE
  5
165
100
AcDbEntity
  8
Layer_1
 62
7
100
AcDbPolyline
 90
5
 70
0
 10
72.844000
 20
249.359428
 30
0.0
 10
73.991210
 20
247.901119
 30
0.0
 10
73.991210
 20
210.767984
 30
0.0
 10
73.991210
 20
173.634850
 30
0.0
 10
72.863630
 20
172.507790
 30
0.0
  0
SPLINE
  5
166
100
AcDbEntity
  8
Layer_1
 62
7
100
AcDbSpline
 70
8
 71
3
 72
8
 73
4
 74
0
 40
0
 40
0
 40
0
 40
0
 40
1
 40
1
 40
1
 40
1
 10
57.326586
 20
256.837524
 30
0.0
 10
57.580189
 20
257.022920
 30
0.0
 10
57.964126
 20
257.107148
 30
0.0
 10
58.447970
 20
257.104690
 30
0.0
  0
LWPOLYLINE
  5
167
100
AcDbEntity
  8
Layer_1
 62
7
100
AcDbPolyline
 90
3
 70
0
 10
56.078599
 20
220.056824
 30
0.0
 10
56.232084
 20
256.037572
 30
0.0
 10
57.326586
 20
256.837524
 30
0.0
  0
SPLINE
  5
168
100
AcDbEntity
  8
Layer_1
 62
7
100
AcDbSpline
 70
8
 71
3
 72
8
 73
4
 74
0
 40
0
 40
0
 40
0
 40
0
 40
1
 40
1
 40
1
 40
1
 10
38.803689
 20
257.029760
 30
0.0
 10
39.241442
 20
256.980030
 30
0.0
 10
39.581194
 20
256.843186
 30
0.0
 10
39.795348
 20
256.606529
 30
0.0
  0
LWPOLYLINE
  5
169
100
AcDbEntity
  8
Layer_1
 62
7
100
AcDbPolyline
 90
1
 70
1
 10
58.447970
 20
257.104690
 30
0.0
  0
SPLINE
  5
16a
100
AcDbEntity
  8
Layer_1
 62
7
100
AcDbSpline
 70
8
 71
3
 72
8
 73
4
 74
0
 40
0
 40
0
 40
0
 40
0
 40
1
 40
1
 40
1
 40
1
 10
39.177837
 20
180.828730
 30
0.0
 10
38.325137
 20
180.017970
 30
0.0
 10
35.229592
 20
177.560010
 30
0.0
 10
32.298670
 20
175.367050
 30
0.0
  0
SPLINE
  5
16b
100
AcDbEntity
  8
Layer_1
 62
7
100
AcDbSpline
 70
8
 71
3
 72
8
 73
4
 74
0
 40
0
 40
0
 40
0
 40
0
 40
1
 40
1
 40
1
 40
1
 10
32.298670
 20
175.367050
 30
0.0
 10
26.499506
 20
171.028150
 30
0.0
 10
26.346471
 20
170.967390
 30
0.0
 10
24.504310
 20
172.257670
 30
0.0
  0
LWPOLYLINE
  5
16c
100
AcDbEntity
  8
Layer_1
 62
7
100
AcDbPolyline
 90
5
 70
0
 10
39.795348
 20
256.606529
 30
0.0
 10
40.728110
 20
255.575586
 30
0.0
 10
40.728110
 20
218.939063
 30
0.0
 10
40.728110
 20
182.302540
 30
0.0
 10
39.177837
 20
180.828730
 30
0.0
  0
SPLINE
  5
16d
100
AcDbEntity
  8
Layer_1
 62
7
100
AcDbSpline
 70
8
 71
3
 72
8
 73
4
 74
0
 40
0
 40
0
 40
0
 40
0
 40
1
 40
1
 40
1
 40
1
 10
24.643824
 20
249.621942
 30
0.0
 10
27.871133
 20
253.457369
 30
0.0
 10
35.739365
 20
257.377896
 30
0.0
 10
38.803689
 20
257.029760
 30
0.0
  0
LWPOLYLINE
  5
16e
100
AcDbEntity
  8
Layer_1
 62
7
100
AcDbPolyline
 90
5
 70
0
 10
24.504310
 20
172.257670
 30
0.0
 10
23.251164
 20
173.135140
 30
0.0
 10
23.251164
 20
210.550943
 30
0.0
 10
23.251164
 20
247.966746
 30
0.0
 10
24.643824
 20
249.621942
 30
0.0
  0
SPLINE
  5
16f
100
AcDbEntity
  8
Layer_1
 62
7
100
AcDbSpline
 70
8
 71
3
 72
8
 73
4
 74
0
 40
0
 40
0
 40
0
 40
0
 40
1
 40
1
 40
1
 40
1
 10
7.096579
 20
161.576110
 30
0.0
 10
7.971000
 20
161.659310
 30
0.0
 10
8.955329
 20
161.391570
 30
0.0
 10
9.926906
 20
160.627330
 30
0.0
  0
SPLINE
  5
170
100
AcDbEntity
  8
Layer_1
 62
7
100
AcDbSpline
 70
8
 71
3
 72
8
 73
4
 74
0
 40
0
 40
0
 40
0
 40
0
 40
1
 40
1
 40
1
 40
1
 10
9.926906
 20
160.627330
 30
0.0
 10
11.922896
 20
159.057270
 30
0.0
 10
11.922896
 20
156.641650
 30
0.0
 10
9.926906
 20
155.071590
 30
0.0
  0
SPLINE
  5
171
100
AcDbEntity
  8
Layer_1
 62
7
100
AcDbSpline
 70
8
 71
3
 72
8
 73
4
 74
0
 40
0
 40
0
 40
0
 40
0
 40
1
 40
1
 40
1
 40
1
 10
9.926906
 20
155.071590
 30
0.0
 10
8.002300
 20
153.557700
 30
0.0
 10
7.155025
 20
153.598240
 30
0.0
 10
5.466719
 20
155.286570
 30
0.0
  0
SPLINE
  5
172
100
AcDbEntity
  8
Layer_1
 62
7
100
AcDbSpline
 70
8
 71
3
 72
8
 73
4
 74
0
 40
0
 40
0
 40
0
 40
0
 40
1
 40
1
 40
1
 40
1
 10
5.466719
 20
155.286570
 30
0.0
 10
2.835041
 20
157.918260
 30
0.0
 10
4.473341
 20
161.326370
 30
0.0
 10
7.096579
 20
161.576110
 30
0.0
  0
LWPOLYLINE
  5
173
100
AcDbEntity
  8
Layer_1
 62
7
100
AcDbPolyline
 90
1
 70
1
 10
38.803689
 20
257.029760
 30
0.0
  0
SPLINE
  5
174
100
AcDbEntity
  8
Layer_1
 62
7
100
AcDbSpline
 70
8
 71
3
 72
8
 73
4
 74
0
 40
0
 40
0
 40
0
 40
0
 40
1
 40
1
 40
1
 40
1
 10
89.030070
 20
161.549210
 30
0.0
 10
89.664200
 20
161.639210
 30
0.0
 10
90.302690
 20
161.554210
 30
0.0
 10
90.878560
 20
161.245870
 30
0.0
  0
SPLINE
  5
175
100
AcDbEntity
  8
Layer_1
 62
7
100
AcDbSpline
 70
8
 71
3
 72
8
 73
4
 74
0
 40
0
 40
0
 40
0
 40
0
 40
1
 40
1
 40
1
 40
1
 10
90.878560
 20
161.245870
 30
0.0
 10
93.464860
 20
159.861710
 30
0.0
 10
93.280440
 20
155.282770
 30
0.0
 10
90.596910
 20
154.253020
 30
0.0
  0
SPLINE
  5
176
100
AcDbEntity
  8
Layer_1
 62
7
100
AcDbSpline
 70
8
 71
3
 72
8
 73
4
 74
0
 40
0
 40
0
 40
0
 40
0
 40
1
 40
1
 40
1
 40
1
 10
90.596910
 20
154.253020
 30
0.0
 10
88.617450
 20
153.493430
 30
0.0
 10
85.266480
 20
155.401450
 30
0.0
 10
85.266480
 20
157.287980
 30
0.0
  0
SPLINE
  5
177
100
AcDbEntity
  8
Layer_1
 62
7
100
AcDbSpline
 70
8
 71
3
 72
8
 73
4
 74
0
 40
0
 40
0
 40
0
 40
0
 40
1
 40
1
 40
1
 40
1
 10
85.266480
 20
157.287980
 30
0.0
 10
85.266480
 20
159.430800
 30
0.0
 10
87.127720
 20
161.279100
 30
0.0
 10
89.030070
 20
161.549210
 30
0.0
  0
LWPOLYLINE
  5
178
100
AcDbEntity
  8
Layer_1
 62
7
100
AcDbPolyline
 90
1
 70
1
 10
7.096579
 20
161.576110
 30
0.0
  0
LWPOLYLINE
  5
179
100
AcDbEntity
  8
Layer_1
 62
7
100
AcDbPolyline
 90
1
 70
1
 10
89.030070
 20
161.549210
 30
0.0
  0
SPLINE
  5
17a
100
AcDbEntity
  8
Layer_1
 62
7
100
AcDbSpline
 70
8
 71
3
 72
8
 73
4
 74
0
 40
0
 40
0
 40
0
 40
0
 40
1
 40
1
 40
1
 40
1
 10
75.303780
 20
149.931830
 30
0.0
 10
77.320570
 20
148.345500
 30
0.0
 10
77.329480
 20
145.936720
 30
0.0
 10
75.324380
 20
144.359570
 30
0.0
  0
LWPOLYLINE
  5
17b
100
AcDbEntity
  8
Layer_1
 62
7
100
AcDbPolyline
 90
2
 70
0
 10
73.797430
 20
151.116260
 30
0.0
 10
75.303780
 20
149.931830
 30
0.0
  0
SPLINE
  5
17c
100
AcDbEntity
  8
Layer_1
 62
7
100
AcDbSpline
 70
8
 71
3
 72
8
 73
4
 74
0
 40
0
 40
0
 40
0
 40
0
 40
1
 40
1
 40
1
 40
1
 10
21.516317
 20
144.839120
 30
0.0
 10
19.586870
 20
146.768570
 30
0.0
 10
19.477465
 20
147.657470
 30
0.0
 10
20.945823
 20
149.471400
 30
0.0
  0
LWPOLYLINE
  5
17d
100
AcDbEntity
  8
Layer_1
 62
7
100
AcDbPolyline
 90
5
 70
0
 10
75.324380
 20
144.359570
 30
0.0
 10
73.838660
 20
143.191160
 30
0.0
 10
48.501753
 20
143.191160
 30
0.0
 10
23.164274
 20
143.191160
 30
0.0
 10
21.516317
 20
144.839120
 30
0.0
  0
SPLINE
  5
17e
100
AcDbEntity
  8
Layer_1
 62
7
100
AcDbSpline
 70
8
 71
3
 72
8
 73
4
 74
0
 40
0
 40
0
 40
0
 40
0
 40
1
 40
1
 40
1
 40
1
 10
57.912612
 20
131.940170
 30
0.0
 10
59.483522
 20
132.270160
 30
0.0
 10
61.834054
 20
131.161660
 30
0.0
 10
65.322480
 20
129.054560
 30
0.0
  0
SPLINE
  5
17f
100
AcDbEntity
  8
Layer_1
 62
7
100
AcDbSpline
 70
8
 71
3
 72
8
 73
4
 74
0
 40
0
 40
0
 40
0
 40
0
 40
1
 40
1
 40
1
 40
1
 10
65.322480
 20
129.054560
 30
0.0
 10
72.067000
 20
124.980710
 30
0.0
 10
71.875940
 20
125.583590
 30
0.0
 10
71.645100
 20
109.071800
 30
0.0
  0
LWPOLYLINE
  5
180
100
AcDbEntity
  8
Layer_1
 62
7
100
AcDbPolyline
 90
4
 70
0
 10
20.945823
 20
149.471400
 30
0.0
 10
22.023259
 20
150.802070
 30
0.0
 10
47.910568
 20
150.959160
 30
0.0
 10
73.797430
 20
151.116260
 30
0.0
  0
SPLINE
  5
181
100
AcDbEntity
  8
Layer_1
 62
7
100
AcDbSpline
 70
8
 71
3
 72
8
 73
4
 74
0
 40
0
 40
0
 40
0
 40
0
 40
1
 40
1
 40
1
 40
1
 10
70.380070
 20
94.201390
 30
0.0
 10
67.999400
 20
91.572330
 30
0.0
 10
63.566070
 20
94.503990
 30
0.0
 10
56.617079
 20
103.302640
 30
0.0
  0
LWPOLYLINE
  5
182
100
AcDbEntity
  8
Layer_1
 62
7
100
AcDbPolyline
 90
3
 70
0
 10
71.645100
 20
109.071800
 30
0.0
 10
71.453880
 20
95.387360
 30
0.0
 10
70.380070
 20
94.201390
 30
0.0
  0
SPLINE
  5
183
100
AcDbEntity
  8
Layer_1
 62
7
100
AcDbSpline
 70
8
 71
3
 72
8
 73
4
 74
0
 40
0
 40
0
 40
0
 40
0
 40
1
 40
1
 40
1
 40
1
 10
54.894192
 20
116.269290
 30
0.0
 10
54.841432
 20
126.844580
 30
0.0
 10
55.294374
 20
131.390190
 30
0.0
 10
57.912612
 20
131.940170
 30
0.0
  0
LWPOLYLINE
  5
184
100
AcDbEntity
  8
Layer_1
 62
7
100
AcDbPolyline
 90
3
 70
0
 10
56.617079
 20
103.302640
 30
0.0
 10
54.948432
 20
105.415170
 30
0.0
 10
54.894192
 20
116.269290
 30
0.0
  0
SPLINE
  5
185
100
AcDbEntity
  8
Layer_1
 62
7
100
AcDbSpline
 70
8
 71
3
 72
8
 73
4
 74
0
 40
0
 40
0
 40
0
 40
0
 40
1
 40
1
 40
1
 40
1
 10
37.359858
 20
131.748450
 30
0.0
 10
38.619592
 20
131.960400
 30
0.0
 10
39.479329
 20
131.524960
 30
0.0
 10
40.472311
 20
130.531990
 30
0.0
  0
LWPOLYLINE
  5
186
100
AcDbEntity
  8
Layer_1
 62
7
100
AcDbPolyline
 90
1
 70
1
 10
57.912612
 20
131.940170
 30
0.0
  0
SPLINE
  5
187
100
AcDbEntity
  8
Layer_1
 62
7
100
AcDbSpline
 70
8
 71
3
 72
8
 73
4
 74
0
 40
0
 40
0
 40
0
 40
0
 40
1
 40
1
 40
1
 40
1
 10
36.443632
 20
98.860020
 30
0.0
 10
30.582741
 20
92.530910
 30
0.0
 10
29.004740
 20
91.772100
 30
0.0
 10
26.633888
 20
94.142990
 30
0.0
  0
LWPOLYLINE
  5
188
100
AcDbEntity
  8
Layer_1
 62
7
100
AcDbPolyline
 90
5
 70
0
 10
40.472311
 20
130.531990
 30
0.0
 10
41.855711
 20
129.148090
 30
0.0
 10
41.855711
 20
116.926100
 30
0.0
 10
41.855711
 20
104.704620
 30
0.0
 10
36.443632
 20
98.860020
 30
0.0
  0
SPLINE
  5
189
100
AcDbEntity
  8
Layer_1
 62
7
100
AcDbSpline
 70
8
 71
3
 72
8
 73
4
 74
0
 40
0
 40
0
 40
0
 40
0
 40
1
 40
1
 40
1
 40
1
 10
25.506313
 20
109.521380
 30
0.0
 10
25.506313
 20
126.138990
 30
0.0
 10
25.118117
 20
124.939990
 30
0.0
 10
31.845968
 20
129.080400
 30
0.0
  0
SPLINE
  5
18a
100
AcDbEntity
  8
Layer_1
 62
7
100
AcDbSpline
 70
8
 71
3
 72
8
 73
4
 74
0
 40
0
 40
0
 40
0
 40
0
 40
1
 40
1
 40
1
 40
1
 10
31.845968
 20
129.080400
 30
0.0
 10
34.440234
 20
130.676930
 30
0.0
 10
36.100097
 20
131.536500
 30
0.0
 10
37.359858
 20
131.748450
 30
0.0
  0
LWPOLYLINE
  5
18b
100
AcDbEntity
  8
Layer_1
 62
7
100
AcDbPolyline
 90
3
 70
0
 10
26.633888
 20
94.142990
 30
0.0
 10
25.506313
 20
95.270570
 30
0.0
 10
25.506313
 20
109.521380
 30
0.0
  0
SPLINE
  5
18c
100
AcDbEntity
  8
Layer_1
 62
7
100
AcDbSpline
 70
8
 71
3
 72
8
 73
4
 74
0
 40
0
 40
0
 40
0
 40
0
 40
1
 40
1
 40
1
 40
1
 10
37.560359
 20
85.341420
 30
0.0
 10
38.703015
 20
85.777320
 30
0.0
 10
39.556164
 20
85.275920
 30
0.0
 10
40.869186
 20
84.122890
 30
0.0
  0
LWPOLYLINE
  5
18d
100
AcDbEntity
  8
Layer_1
 62
7
100
AcDbPolyline
 90
1
 70
1
 10
37.359858
 20
131.748450
 30
0.0
  0
SPLINE
  5
18e
100
AcDbEntity
  8
Layer_1
 62
7
100
AcDbSpline
 70
8
 71
3
 72
8
 73
4
 74
0
 40
0
 40
0
 40
0
 40
0
 40
1
 40
1
 40
1
 40
1
 10
37.192932
 20
48.605680
 30
0.0
 10
30.066936
 20
41.516690
 30
0.0
 10
28.753253
 20
41.982200
 30
0.0
 10
27.796097
 20
51.933130
 30
0.0
  0
SPLINE
  5
18f
100
AcDbEntity
  8
Layer_1
 62
7
100
AcDbSpline
 70
8
 71
3
 72
8
 73
4
 74
0
 40
0
 40
0
 40
0
 40
0
 40
1
 40
1
 40
1
 40
1
 10
27.796097
 20
51.933130
 30
0.0
 10
27.486640
 20
55.148810
 30
0.0
 10
26.931015
 20
60.953030
 30
0.0
 10
26.561022
 20
64.831560
 30
0.0
  0
LWPOLYLINE
  5
190
100
AcDbEntity
  8
Layer_1
 62
7
100
AcDbPolyline
 90
5
 70
0
 10
40.869186
 20
84.122890
 30
0.0
 10
41.855711
 20
83.256280
 30
0.0
 10
41.855711
 20
68.250480
 30
0.0
 10
41.855711
 20
53.244160
 30
0.0
 10
37.192932
 20
48.605680
 30
0.0
  0
SPLINE
  5
191
100
AcDbEntity
  8
Layer_1
 62
7
100
AcDbSpline
 70
8
 71
3
 72
8
 73
4
 74
0
 40
0
 40
0
 40
0
 40
0
 40
1
 40
1
 40
1
 40
1
 10
26.876775
 20
73.967440
 30
0.0
 10
27.420653
 20
75.113580
 30
0.0
 10
29.957875
 20
78.248970
 30
0.0
 10
32.514676
 20
80.935490
 30
0.0
  0
SPLINE
  5
192
100
AcDbEntity
  8
Layer_1
 62
7
100
AcDbSpline
 70
8
 71
3
 72
8
 73
4
 74
0
 40
0
 40
0
 40
0
 40
0
 40
1
 40
1
 40
1
 40
1
 10
32.514676
 20
80.935490
 30
0.0
 10
34.985884
 20
83.532100
 30
0.0
 10
36.417703
 20
84.905530
 30
0.0
 10
37.560359
 20
85.341420
 30
0.0
  0
LWPOLYLINE
  5
193
100
AcDbEntity
  8
Layer_1
 62
7
100
AcDbPolyline
 90
3
 70
0
 10
26.561022
 20
64.831560
 30
0.0
 10
25.888186
 20
71.883330
 30
0.0
 10
26.876775
 20
73.967440
 30
0.0
  0
SPLINE
  5
194
100
AcDbEntity
  8
Layer_1
 62
7
100
AcDbSpline
 70
8
 71
3
 72
8
 73
4
 74
0
 40
0
 40
0
 40
0
 40
0
 40
1
 40
1
 40
1
 40
1
 10
58.463474
 20
85.047900
 30
0.0
 10
61.653053
 20
84.574190
 30
0.0
 10
68.369340
 20
78.335740
 30
0.0
 10
70.390390
 20
73.498730
 30
0.0
  0
SPLINE
  5
195
100
AcDbEntity
  8
Layer_1
 62
7
100
AcDbSpline
 70
8
 71
3
 72
8
 73
4
 74
0
 40
0
 40
0
 40
0
 40
0
 40
1
 40
1
 40
1
 40
1
 10
70.390390
 20
73.498730
 30
0.0
 10
71.335450
 20
71.236900
 30
0.0
 10
69.308640
 20
47.335790
 30
0.0
 10
67.993630
 20
45.235340
 30
0.0
  0
SPLINE
  5
196
100
AcDbEntity
  8
Layer_1
 62
7
100
AcDbSpline
 70
8
 71
3
 72
8
 73
4
 74
0
 40
0
 40
0
 40
0
 40
0
 40
1
 40
1
 40
1
 40
1
 10
67.993630
 20
45.235340
 30
0.0
 10
66.628570
 20
43.054920
 30
0.0
 10
64.999950
 20
43.723690
 30
0.0
 10
59.896458
 20
48.560210
 30
0.0
  0
LWPOLYLINE
  5
197
100
AcDbEntity
  8
Layer_1
 62
7
100
AcDbPolyline
 90
1
 70
1
 10
37.560359
 20
85.341420
 30
0.0
  0
SPLINE
  5
198
100
AcDbEntity
  8
Layer_1
 62
7
100
AcDbSpline
 70
8
 71
3
 72
8
 73
4
 74
0
 40
0
 40
0
 40
0
 40
0
 40
1
 40
1
 40
1
 40
1
 10
54.984627
 20
67.496520
 30
0.0
 10
54.859426
 20
82.496520
 30
0.0
 10
54.971657
 20
83.327850
 30
0.0
 10
57.336402
 20
84.877370
 30
0.0
  0
SPLINE
  5
199
100
AcDbEntity
  8
Layer_1
 62
7
100
AcDbSpline
 70
8
 71
3
 72
8
 73
4
 74
0
 40
0
 40
0
 40
0
 40
0
 40
1
 40
1
 40
1
 40
1
 10
57.336402
 20
84.877370
 30
0.0
 10
57.624137
 20
85.065900
 30
0.0
 10
58.007809
 20
85.115580
 30
0.0
 10
58.463474
 20
85.047900
 30
0.0
  0
LWPOLYLINE
  5
19a
100
AcDbEntity
  8
Layer_1
 62
7
100
AcDbPolyline
 90
3
 70
0
 10
59.896458
 20
48.560210
 30
0.0
 10
55.104509
 20
53.101530
 30
0.0
 10
54.984627
 20
67.496520
 30
0.0
  0
SPLINE
  5
19b
100
AcDbEntity
  8
Layer_1
 62
7
100
AcDbSpline
 70
8
 71
3
 72
8
 73
4
 74
0
 40
0
 40
0
 40
0
 40
0
 40
1
 40
1
 40
1
 40
1
 10
22.000584
 20
11.833670
 30
0.0
 10
24.586225
 20
11.959070
 30
0.0
 10
26.734535
 20
9.325270
 30
0.0
 10
24.608688
 20
6.798840
 30
0.0
  0
SPLINE
  5
19c
100
AcDbEntity
  8
Layer_1
 62
7
100
AcDbSpline
 70
8
 71
3
 72
8
 73
4
 74
0
 40
0
 40
0
 40
0
 40
0
 40
1
 40
1
 40
1
 40
1
 10
24.608688
 20
6.798840
 30
0.0
 10
22.794413
 20
4.642740
 30
0.0
 10
21.912954
 20
4.627200
 30
0.0
 10
19.825524
 20
6.714640
 30
0.0
  0
SPLINE
  5
19d
100
AcDbEntity
  8
Layer_1
 62
7
100
AcDbSpline
 70
8
 71
3
 72
8
 73
4
 74
0
 40
0
 40
0
 40
0
 40
0
 40
1
 40
1
 40
1
 40
1
 10
19.825524
 20
6.714640
 30
0.0
 10
17.851838
 20
8.688290
 30
0.0
 10
17.799980
 20
9.181460
 30
0.0
 10
19.411081
 20
10.682360
 30
0.0
  0
SPLINE
  5
19e
100
AcDbEntity
  8
Layer_1
 62
7
100
AcDbSpline
 70
8
 71
3
 72
8
 73
4
 74
0
 40
0
 40
0
 40
0
 40
0
 40
1
 40
1
 40
1
 40
1
 10
19.411081
 20
10.682360
 30
0.0
 10
20.228061
 20
11.443520
 30
0.0
 10
21.138704
 20
11.791910
 30
0.0
 10
22.000584
 20
11.833710
 30
0.0
  0
LWPOLYLINE
  5
19f
100
AcDbEntity
  8
Layer_1
 62
7
100
AcDbPolyline
 90
1
 70
1
 10
58.463474
 20
85.047900
 30
0.0
  0
SPLINE
  5
1a0
100
AcDbEntity
  8
Layer_1
 62
7
100
AcDbSpline
 70
8
 71
3
 72
8
 73
4
 74
0
 40
0
 40
0
 40
0
 40
0
 40
1
 40
1
 40
1
 40
1
 10
75.069700
 20
11.828670
 30
0.0
 10
77.582950
 20
11.988970
 30
0.0
 10
79.477340
 20
9.278030
 30
0.0
 10
77.332600
 20
6.551470
 30
0.0
  0
SPLINE
  5
1a1
100
AcDbEntity
  8
Layer_1
 62
7
100
AcDbSpline
 70
8
 71
3
 72
8
 73
4
 74
0
 40
0
 40
0
 40
0
 40
0
 40
1
 40
1
 40
1
 40
1
 10
77.332600
 20
6.551470
 30
0.0
 10
75.933750
 20
4.773200
 30
0.0
 10
75.397600
 20
4.728390
 30
0.0
 10
73.004180
 20
6.187670
 30
0.0
  0
SPLINE
  5
1a2
100
AcDbEntity
  8
Layer_1
 62
7
100
AcDbSpline
 70
8
 71
3
 72
8
 73
4
 74
0
 40
0
 40
0
 40
0
 40
0
 40
1
 40
1
 40
1
 40
1
 10
73.004180
 20
6.187670
 30
0.0
 10
70.843830
 20
7.504850
 30
0.0
 10
70.675980
 20
8.913450
 30
0.0
 10
72.477080
 20
10.605490
 30
0.0
  0
SPLINE
  5
1a3
100
AcDbEntity
  8
Layer_1
 62
7
100
AcDbSpline
 70
8
 71
3
 72
8
 73
4
 74
0
 40
0
 40
0
 40
0
 40
0
 40
1
 40
1
 40
1
 40
1
 10
72.477080
 20
10.605490
 30
0.0
 10
73.325730
 20
11.402710
 30
0.0
 10
74.231930
 20
11.775230
 30
0.0
 10
75.069700
 20
11.828670
 30
0.0
  0
LWPOLYLINE
  5
1a4
100
AcDbEntity
  8
Layer_1
 62
7
100
AcDbPolyline
 90
1
 70
1
 10
22.000584
 20
11.833710
 30
0.0
  0
LWPOLYLINE
  5
1a5
100
AcDbEntity
  8
Layer_1
 62
7
100
AcDbPolyline
 90
1
 70
1
 10
75.069700
 20
11.828670
 30
0.0
  0
ENDSEC
  0
SECTION
  2
OBJECTS
  0
DICTIONARY
  5
C
330
0
100
AcDbDictionary
  3
ACAD_GROUP
350
D
  3
ACAD_MLINESTYLE
350
17
  0
DICTIONARY
  5
D
330
C
100
AcDbDictionary
  0
DICTIONARY
  5
1A
330
C
100
AcDbDictionary
  0
DICTIONARY
  5
17
330
C
100
AcDbDictionary
  3
STANDARD
350
18
  0
DICTIONARY
  5
19
330
C
100
AcDbDictionary
  0
ENDSEC
  0
EOF
