<?xml version="1.0" encoding="UTF-8" standalone="no"?>
<!-- Created with Inkscape (http://www.inkscape.org/) -->

<svg
   width="96.762802mm"
   height="411.57791mm"
   viewBox="0 0 96.762802 411.57791"
   version="1.1"
   id="svg1"
   inkscape:version="1.3.2 (091e20e, 2023-11-25, custom)"
   sodipodi:docname="drawing_top.svg"
   xmlns:inkscape="http://www.inkscape.org/namespaces/inkscape"
   xmlns:sodipodi="http://sodipodi.sourceforge.net/DTD/sodipodi-0.dtd"
   xmlns="http://www.w3.org/2000/svg"
   xmlns:svg="http://www.w3.org/2000/svg">
  <sodipodi:namedview
     id="namedview1"
     pagecolor="#ffffff"
     bordercolor="#999999"
     borderopacity="1"
     inkscape:showpageshadow="2"
     inkscape:pageopacity="0"
     inkscape:pagecheckerboard="0"
     inkscape:deskcolor="#d1d1d1"
     inkscape:document-units="mm"
     inkscape:zoom="0.20779183"
     inkscape:cx="411.46951"
     inkscape:cy="1359.5337"
     inkscape:window-width="1920"
     inkscape:window-height="1021"
     inkscape:window-x="-7"
     inkscape:window-y="27"
     inkscape:window-maximized="1"
     inkscape:current-layer="layer1" />
  <defs
     id="defs1" />
  <g
     inkscape:label="Layer 1"
     inkscape:groupmode="layer"
     id="layer1"
     transform="translate(-35.189582,120.12083)">
    <path
       style="stroke-width:0.563774"
       d="m 110.86081,-120.12083 -0.56018,1.28363 c -0.30816,0.70596 -2.99524,8.57723 -5.9712,17.49197 -2.97603,8.914582 -5.702216,16.205546 -6.058556,16.202107 -0.356341,-0.0034 -3.565499,-2.529655 -7.131341,-5.613612 -7.910672,-6.841596 -7.028868,-6.831938 -14.675591,-0.158644 -8.335857,7.274666 -7.175579,8.1153 -13.034857,-9.443351 -2.742168,-8.217 -5.387551,-16.01808 -5.879226,-17.3359 l -0.894001,-2.39622 h -8.409834 -8.410337 v 12.63642 12.635918 l 2.81895,7.371662 2.818951,7.371635 v 10.294964 10.29552 l -1.400943,4.509796 -1.400968,4.510325 -0.0082,10.566268 -0.0082,10.566268 -3.664373,8.987049 -3.664373,8.987049 v 4.0013199 c 0,4.2467212 0.543348,5.9124585 4.883441,14.9608247 l 2.163683,4.5103254 0.14986,50.619641 0.14986,50.619645 -3.475249,8.29459 c -2.192444,5.23321 -3.573595,9.3812 -3.74187,11.23807 l -0.266674,2.94297 4.116547,7.48689 4.116546,7.48636 0.701252,21.14186 c 1.082066,32.61593 1.019995,39.351 -0.41701,45.28613 l -1.205098,4.97695 2.602415,2.6417 2.601913,2.64222 0.564303,19.16058 c 0.310118,10.53834 0.598488,22.07806 0.640794,25.64392 0.157957,13.30888 0.775679,15.67216 4.73718,18.11931 v 0 c 2.810113,1.73548 7.131605,1.00187 9.451631,-1.60507 0.54737,-0.61515 3.104594,-7.69032 5.682853,-15.72256 2.578153,-8.03223 5.08709,-15.36542 5.575379,-16.29564 3.390212,-6.45838 11.569594,-7.75212 16.676502,-2.63809 2.260362,2.2636 2.57593,3.07328 8.598429,22.07101 4.356812,13.74373 6.244932,16.0899 12.070582,14.99702 6.13595,-1.15111 6.32452,-2.04841 7.05434,-33.584 0.72163,-31.18293 0.52565,-29.45706 3.70933,-32.71738 l 2.49547,-2.55489 -1.42267,-5.60689 -1.42213,-5.60689 0.56586,-20.87211 c 0.31131,-11.4798 0.73118,-25.04639 0.93327,-30.14752 l 0.36743,-9.27488 3.37499,-6.22908 c 1.85627,-3.42593 3.59934,-6.46986 3.87313,-6.76444 1.58748,-1.70757 0.51446,-7.55679 -2.88456,-15.72256 l -3.38275,-8.12612 V 63.405928 12.796616 l 3.38275,-7.5385607 3.38222,-7.5390506 v -4.9878191 -4.9883216 l -3.38222,-8.235156 -3.38275,-8.235659 v -10.628815 -10.628286 l -1.40973,-4.143957 -1.40922,-4.143931 v -11.114563 -11.114035 l 2.67787,-6.969098 2.67787,-6.96857 v -12.684494 -12.685 l -8.32093,-0.15608 z m -61.591087,12.99663 c 3.007016,0 4.445873,3.03437 2.406068,5.0741 -0.620183,0.62013 -1.762151,1.12757 -2.537327,1.12757 -1.416368,0 -3.664374,-1.74532 -3.664374,-2.84477 0,-0.97481 2.693485,-3.3569 3.795633,-3.3569 z m 69.087257,0.2899 c 2.56487,0.113 4.55449,2.84382 2.19575,4.97851 -1.4641,1.32506 -3.30774,1.15615 -4.91445,-0.45062 -1.74614,-1.74609 -1.73318,-2.20599 0.10181,-3.64939 0.84307,-0.66316 1.76194,-0.91618 2.61689,-0.8785 z m -49.517377,32.108431 c 0.962739,0.0209 2.165853,0.999913 4.726331,2.961058 6.156246,4.715325 5.734526,3.873579 5.734526,11.440662 0,7.367297 -0.161554,7.755441 -2.571935,6.166538 -2.675943,-1.76403 -3.120363,-1.435999 -8.054816,5.949527 -6.032606,9.029171 -5.722646,9.39837 -5.722646,-6.818207 v -13.86324 l 2.605537,-3.049932 c 1.598083,-1.870604 2.320264,-2.807361 3.283003,-2.786406 z m 29.710327,1.328605 c 1.246187,0.111707 2.36193,0.568352 3.18016,1.433513 l 2.86081,3.02514 0.0103,12.901533 c 0.005,7.095781 -0.12107,13.345424 -0.28061,13.888032 -0.48461,1.648063 -0.89525,1.214702 -5.549002,-5.853377 -5.07365,-7.705672 -5.199354,-7.804521 -7.82537,-6.18154 -1.052248,0.65024 -2.03745,1.18237 -2.189533,1.18237 -0.494771,0 -0.889238,-12.620943 -0.432012,-13.823447 1.573954,-4.139803 6.486631,-6.907292 10.22522,-6.572224 z m 22.35523,23.777892 c 0.21799,0 0.39634,2.67679 0.39634,5.948469 v 5.948468 l -1.12757,-0.365337 c -0.62016,-0.200977 -1.50784,-0.365363 -1.973,-0.365363 -0.46508,0 -1.35284,0.164386 -1.973,0.365363 l -1.1276,0.365337 v -5.948468 c 0,-5.872877 0.32552,-6.806354 1.84486,-5.28701 0.50583,0.505777 1.00243,0.505777 2.11254,0 0.7982,-0.363723 1.62949,-0.661459 1.84743,-0.661459 z m -73.847697,0.09403 c 0.305593,0.0562 0.637804,0.208439 0.960146,0.475959 0.664819,0.551657 1.191472,0.548561 2.548176,-0.01349 2.054992,-0.851192 2.554393,-0.510832 1.671717,1.138422 -0.674635,1.260449 -0.513504,6.546691 0.270272,8.875951 0.480986,1.429385 -1.157711,1.844754 -2.395194,0.607192 -0.505857,-0.505804 -1.002347,-0.505804 -2.112539,0 v 0 c -2.174028,0.990521 -3.782351,0.376952 -1.961621,-0.748295 0.745252,-0.460824 0.725884,-7.381134 -0.02487,-8.783954 -0.549592,-1.026848 0.127106,-1.72093 1.043861,-1.552364 z m 36.63135,14.513851 c 1.303443,-0.0079 2.604823,1.494287 5.362998,4.497414 l 4.342871,4.728369 v 7.969038 7.9685091 l -4.662752,4.6389924 v 0 C 83.029339,0.46389798 83.705323,0.49149402 78.208022,-5.6396161 l -4.544933,-5.0689399 v -7.316365 -7.316337 l 4.650873,-5.10667 c 2.76598,-3.03694 4.071408,-4.55504 5.374851,-4.563031 z m -40.469872,24.010937 1.550299,0.862992 c 1.927913,1.0734408 2.393395,3.8239433 0.873337,5.1599039 -1.880949,1.6529844 -3.326897,1.7269619 -5.034836,0.2578629 -1.933892,-1.6634883 -1.474258,-3.9955787 1.06815,-5.4177668 z m 81.153179,0.282152 c 2.51079,0 4.46853,4.3562587 2.73627,6.0885122 -1.85224,1.8522421 -6.65231,-0.3291681 -6.65231,-3.0230762 0,-0.9505156 2.70187,-3.065436 3.91604,-3.065436 z M 57.908475,17.188409 H 83.876403 109.8438 l 1.07799,1.330669 c 1.50196,1.854856 1.35261,3.726598 -0.40772,5.111321 l -1.48571,1.168903 H 83.515194 58.002005 l -1.260369,-1.021107 c -1.61589,-1.308523 -1.637771,-3.785685 -0.04704,-5.376407 z M 93.63757,34.35222 c 3.386825,0.0172 11.66828,4.277477 14.39603,7.745262 l 1.14721,1.458309 v 37.133135 37.133134 l -1.12758,1.12706 c -1.70222,1.70225 -2.18588,1.50844 -9.181355,-3.68246 -8.568479,-6.35803 -7.782825,-1.82323 -7.603676,-43.866574 l 0.153485,-35.980748 1.094502,-0.799952 c 0.253603,-0.185396 0.63754,-0.269624 1.121384,-0.267166 z m -19.644281,0.07493 c 0.437753,0.04973 0.777505,0.186574 0.991659,0.423231 l 0.932762,1.030943 v 36.636523 36.636523 l -1.550273,1.47381 c -0.8527,0.81076 -3.948245,3.26872 -6.879167,5.46168 -5.799164,4.3389 -5.952199,4.39966 -7.79436,3.10938 l -1.253146,-0.87747 V 80.905967 43.490164 l 1.39266,-1.655196 c 3.227309,-3.835427 11.095541,-7.755954 14.159865,-7.407818 z m -31.70711,95.45365 c 0.874421,-0.0832 1.85875,0.18454 2.830327,0.94878 1.99599,1.57006 1.99599,3.98568 0,5.55574 -1.924606,1.51389 -2.771881,1.47335 -4.460187,-0.21498 -2.631678,-2.63169 -0.993378,-6.0398 1.62986,-6.28954 z m 81.933491,0.0269 c 0.63413,-0.09 1.27262,-0.005 1.84849,0.30334 2.5863,1.38416 2.40188,5.9631 -0.28165,6.99285 -1.97946,0.75959 -5.33043,-1.14843 -5.33043,-3.03496 0,-2.14282 1.86124,-3.99112 3.76359,-4.26123 z m -15.23264,10.43295 1.50635,1.18443 c 2.01679,1.58633 2.0257,3.99511 0.0206,5.57226 l -1.48572,1.16841 H 83.691353 58.353874 l -1.647957,-1.64796 c -1.929447,-1.92945 -2.038852,-2.81835 -0.570494,-4.63228 l 1.077436,-1.33067 25.887309,-0.15709 z m -15.884818,19.17609 c 1.57091,-0.32999 3.921442,0.77851 7.409868,2.88561 6.74452,4.07385 6.55346,3.47097 6.32262,19.98276 l -0.19122,13.68444 -1.07381,1.18597 c -2.38067,2.62906 -6.814,-0.3026 -13.762991,-9.10125 l -1.668647,-2.11253 -0.05424,-10.85412 c -0.05276,-10.57529 0.400182,-15.1209 3.01842,-15.67088 z m -20.552754,0.19172 c 1.259734,-0.21195 2.119471,0.22349 3.112453,1.21646 l 1.3834,1.3839 v 12.22199 12.22148 l -5.412079,5.8446 c -5.860891,6.32911 -7.438892,7.08792 -9.809744,4.71703 l -1.127575,-1.12758 v -14.25081 c 0,-16.61761 -0.388196,-15.41861 6.339655,-19.55902 2.594266,-1.59653 4.254129,-2.4561 5.51389,-2.66805 z m 0.200501,46.40703 c 1.142656,-0.4359 1.995805,0.0655 3.308827,1.21853 l 0.986525,0.86661 v 15.0058 15.00632 l -4.662779,4.63848 c -7.125996,7.08899 -8.439679,6.62348 -9.396835,-3.32745 -0.309457,-3.21568 -0.865082,-9.0199 -1.235075,-12.89843 l -0.672836,-7.05177 0.988589,-2.08411 c 0.543878,-1.14614 3.0811,-4.28153 5.637901,-6.96805 2.471208,-2.59661 3.903027,-3.97004 5.045683,-4.40593 z m 20.903115,0.29352 c 3.189579,0.47371 9.905866,6.71216 11.926916,11.54917 0.94506,2.26183 -1.08175,26.16294 -2.39676,28.26339 -1.36506,2.18042 -2.99368,1.51165 -8.097172,-3.32487 l -4.791949,-4.54132 -0.119882,-14.39499 c -0.125201,-15 -0.01297,-15.83133 2.351775,-17.38085 0.287735,-0.18853 0.671407,-0.23821 1.127072,-0.17053 z m -36.46289,73.21423 c 2.585641,-0.1254 4.733951,2.5084 2.608104,5.03483 -1.814275,2.1561 -2.695734,2.17164 -4.783164,0.0842 -1.973686,-1.97365 -2.025544,-2.46682 -0.414443,-3.96772 0.81698,-0.76116 1.727623,-1.10955 2.589503,-1.15135 z m 53.069116,0.005 c 2.51325,-0.1603 4.40764,2.55064 2.2629,5.2772 -1.39885,1.77827 -1.935,1.82308 -4.32842,0.3638 -2.16035,-1.31718 -2.3282,-2.72578 -0.5271,-4.41782 0.84865,-0.79722 1.75485,-1.16974 2.59262,-1.22318 z"
       id="path477" />
  </g>
</svg>
